<svg xmlns="http://www.w3.org/2000/svg" width="63" height="39" viewBox="0 0 63 39" fill="none">
  <path d="M1.55455 19.0851L1.43878 19.3122L1.55455 19.5393C4.40605 25.1327 8.74852 29.8289 14.102 33.1087C19.4556 36.3886 25.6117 38.1244 31.89 38.1244C38.1683 38.1244 44.3244 36.3886 49.678 33.1087C55.0315 29.8289 59.3739 25.1327 62.2254 19.5393L62.3412 19.3122L62.2254 19.0851C59.3739 13.4917 55.0315 8.79554 49.678 5.51569C44.3244 2.23585 38.1683 0.5 31.89 0.5C25.6117 0.5 19.4556 2.23585 14.102 5.51569C8.74852 8.79554 4.40605 13.4917 1.55455 19.0851ZM40.1632 27.5854C37.969 29.7795 34.993 31.0122 31.89 31.0122C28.787 31.0122 25.811 29.7795 23.6168 27.5854C21.4227 25.3912 20.19 22.4152 20.19 19.3122C20.19 16.2092 21.4227 13.2332 23.6168 11.0391C25.811 8.84488 28.787 7.61221 31.89 7.61221C34.993 7.61221 37.969 8.84488 40.1632 11.0391C42.3573 13.2332 43.59 16.2092 43.59 19.3122C43.59 22.4152 42.3573 25.3912 40.1632 27.5854ZM27.2231 23.9791C28.4608 25.2168 30.1396 25.9122 31.89 25.9122C33.6404 25.9122 35.3192 25.2168 36.5569 23.9791C37.7946 22.7414 38.49 21.0626 38.49 19.3122C38.49 17.5618 37.7946 15.883 36.5569 14.6453C35.3192 13.4076 33.6404 12.7122 31.89 12.7122C30.1396 12.7122 28.4608 13.4076 27.2231 14.6453C25.9854 15.883 25.29 17.5618 25.29 19.3122C25.29 21.0626 25.9854 22.7414 27.2231 23.9791Z" fill="white" stroke="black"/>
  <circle cx="32" cy="19" r="16.5" fill="black" stroke="black"/>
</svg>